<?xml version="1.0" encoding="UTF-8" standalone="no"?>
<!DOCTYPE svg PUBLIC "-//W3C//DTD SVG 1.1//EN" "http://www.w3.org/Graphics/SVG/1.1/DTD/svg11.dtd">

<!-- Created with Vectornator (http://vectornator.io/) -->
<svg height="100%" stroke-miterlimit="10" style="fill-rule:nonzero;clip-rule:evenodd;stroke-linecap:round;stroke-linejoin:round;" version="1.1" viewBox="0 0 6000 1200" width="100%" xml:space="preserve" xmlns="http://www.w3.org/2000/svg" xmlns:vectornator="http://vectornator.io" xmlns:xlink="http://www.w3.org/1999/xlink">
<metadata>
<vectornator:setting key="IsTimeLapseWatermarkDisabled" value="false"/>
<vectornator:setting key="UndoHistoryDisabled" value="true"/>
<vectornator:setting key="VNDimensionsVisible" value="true"/>
<vectornator:setting key="VNSnapToGuides" value="true"/>
<vectornator:setting key="WDCMYKEnabledKey" value="false"/>
<vectornator:setting key="WDDisplayWhiteBackground" value="false"/>
<vectornator:setting key="WDDynamicGuides" value="false"/>
<vectornator:setting key="WDGuidesVisible" value="true"/>
<vectornator:setting key="WDIsolateActiveLayer" value="false"/>
<vectornator:setting key="WDOutlineMode" value="false"/>
<vectornator:setting key="WDRulersVisible" value="true"/>
<vectornator:setting key="WDSnapToEdges" value="false"/>
<vectornator:setting key="WDSnapToGrid" value="false"/>
<vectornator:setting key="WDSnapToPoints" value="false"/>
<vectornator:setting key="WDUnits" value="Points"/>
</metadata>
<defs>
<path d="M1048.24 22.2606L1104.3 22.2606L1104.3 1123.04L1048.24 1123.04L1048.24 22.2606Z" fill-rule="evenodd" id="Fill"/>
</defs>
<g id="Rack" vectornator:layerName="Rack"/>
<g id="Board" vectornator:layerName="Board"/>
<g id="Pillar" vectornator:layerName="Pillar"/>
<g id="Body-colour" vectornator:layerName="Body colour"/>
<g id="Shade" vectornator:layerName="Shade"/>
<g id="Centre" vectornator:layerName="Centre"/>
<g id="Right" vectornator:layerName="Right"/>
<g id="Left" vectornator:layerName="Left"/>
<g id="Body" vectornator:layerName="Body"/>
<g id="Sea" vectornator:layerName="Sea">
<g opacity="1">
<g opacity="1">
<path d="M542.429 0C277.721-9.75132e-05 60.8437 92.1763 60.8399 217.862L60.8399 225.2C61.3353 225.017 61.6992 224.814 62.2159 224.627C63.2918 224.239 68.5192 222.421 69.8411 221.932C70.271 221.438 70.7286 220.908 71.1024 220.442C77.219 212.796 86.4492 209.16 95.5258 209.893C98.9453 210.169 102.222 211.385 105.387 212.989C104.913 212.34 104.99 211.589 105.33 210.982C105.359 210.93 105.295 210.859 105.33 210.81C105.467 210.61 105.662 210.46 105.731 210.409C105.566 210.556 105.466 210.661 105.33 210.982C105.45 210.699 105.692 210.545 105.903 210.351C105.852 210.287 105.808 210.228 105.788 210.122C105.781 210.083 105.793 210.047 105.788 210.007C105.759 209.849 105.776 209.709 105.788 209.549C105.799 209.445 105.703 209.365 105.731 209.262C105.772 209.111 105.944 209.048 106.018 208.918C106.083 208.785 106.032 208.636 106.132 208.517C106.191 208.447 106.279 208.429 106.362 208.402C106.388 208.076 106.311 207.715 106.476 207.427C106.765 206.467 107.739 205.9 108.712 206.166C115.895 168.893 156.511 131.111 227.046 101.134C309.486 66.0966 422.056 45.8657 542.429 45.8657C662.804 45.8657 775.319 66.0967 857.756 101.134C904.42 120.966 937.901 144.241 957.514 168.499C961.651 164.973 966.601 162.296 972.305 161.16C974.53 160.717 976.715 160.518 978.899 160.53C990.959 160.594 1001.87 167.411 1007.51 177.901C1012.16 183.679 1014.49 190.66 1014.67 197.681C1018.22 200.576 1021.38 203.966 1023.5 208.173C1012.67 87.4674 800.288-0.000149302 542.429 0Z" fill="#000000" fill-rule="evenodd" opacity="1" stroke="none"/>
<path d="M0 193.96C0 163.563 24.6417 138.921 55.0388 138.921C85.4359 138.921 110.078 163.563 110.078 193.96C110.078 224.357 85.4359 248.999 55.0388 248.999C24.6417 248.999 0 224.357 0 193.96Z" fill="#000000" fill-rule="evenodd" opacity="1" stroke="none"/>
<path d="M799.621 39.9605L799.621 251.057C805.137 247.342 811.512 245.439 817.91 245.439C824.359 245.439 830.768 247.397 836.314 251.172L836.314 49.8216C832.888 49.8174 829.422 49.4165 825.994 48.2736C823.46 47.4286 824.783 47.7175 815.961 45.8657C809.765 44.5653 804.368 42.5942 799.621 39.9605Z" fill="#000000" fill-rule="evenodd" opacity="1" stroke="none"/>
<path d="M285.926 54.2361C280.888 57.1691 275.391 59.3219 269.471 60.3134C262.749 61.4394 255.859 60.8735 249.233 58.4214L249.233 260.402C250.275 259.408 251.096 258.443 252.157 257.478C257.458 252.658 262.588 248.528 267.465 245.381C271.401 242.841 275.278 240.89 279.676 239.476C281.684 238.831 283.777 238.316 285.926 237.985L285.926 54.2361Z" fill="#000000" fill-rule="evenodd" opacity="1" stroke="none"/>
<path d="M973.968 129.571C968.099 129.539 962.245 131.768 957.743 136.221C948.739 145.128 948.665 159.667 957.571 168.671C994.076 205.575 1018.37 254.159 1032.96 315.613C1045.35 367.783 1050.6 427.008 1051.31 503.892C1051.38 511.865 1051.15 524.489 1051.14 532.443C1055.88 530.355 1061.06 529.265 1066.39 529.634C1072.39 530.048 1078.48 532.217 1084.1 536.514C1088.38 539.781 1091.16 543.381 1093.22 547.235C1094.29 549.237 1095.04 551.067 1095.63 552.911C1096.21 554.743 1096.57 556.343 1096.83 557.956C1096.99 540.175 1097.32 518.756 1097.17 503.433C1096.44 423.419 1090.95 361.125 1077.62 305.007C1061.21 235.911 1033.15 179.826 990.193 136.393C985.74 131.891 979.836 129.603 973.968 129.571Z" fill="#000000" fill-rule="evenodd" opacity="1" stroke="none"/>
<g opacity="1" vectornator:mask="#Fill">
<clipPath id="ClipPath">
<use overflow="#visible" xlink:href="#Fill"/>
</clipPath>
<g clip-path="url(#ClipPath)">
<path d="M1123.79 48.8748L1210.5 48.8748C1250.67 48.8748 1283.23 85.2205 1283.23 130.055L1283.23 1002.44C1283.23 1047.27 1250.67 1083.62 1210.5 1083.62L1123.79 1083.62C1083.62 1083.62 1051.06 1047.27 1051.06 1002.44L1051.06 130.055C1051.06 85.2205 1083.62 48.8748 1123.79 48.8748Z" fill="#000000" fill-rule="evenodd" opacity="1" stroke="none"/>
</g>
</g>
</g>
<path d="M542.783 108.18C309.739 108.18 120.818 202.64 120.818 319.162L120.818 1199.78L964.747 1199.78L964.747 319.162C964.746 202.64 775.827 108.18 542.783 108.18Z" fill="#1c575f" fill-rule="evenodd" opacity="1" stroke="none"/>
<g opacity="1">
<path d="M326.518 392.394L326.518 339.65L338.418 328.505L351.142 339.042L351.142 393.6C351.142 415.693 343.362 436.513 327.544 436.513L327.544 441.641C329.741 441.959 331.961 442.118 334.181 442.118C371.401 442.118 378.846 415.646 378.844 393.6L378.839 332.469L388.049 325L384.274 320.345L375.83 327.193L353.194 308.263L326.518 333.246L326.518 253.885L322.414 253.885L287.531 278.509L287.531 281.587C297.786 284.708 297.791 289.39 297.791 292.873L297.791 390.342L283.427 399.576L287.073 404.509L295.281 399.379L317.284 418.044L343.96 399.576L340.122 394.75L333.476 399.371L326.518 392.394Z" fill="#c55b47" fill-rule="evenodd" opacity="1" stroke="none"/>
<path d="M407.812 292.873L407.812 390.342L393.448 399.576L396.526 403.68L404.734 398.55L427.306 418.044L453.981 399.576L450.903 395.472L444.747 400.602L436.539 392.394L436.539 253.885L432.435 253.885L397.552 278.509L397.552 281.587C403.072 283.267 407.812 285.559 407.812 292.873ZM479.998 340.021C497.284 340.021 504.117 324.476 506.344 309.29L502.241 309.29C499.821 313.718 494.869 317.505 488.4 317.505C481.923 317.505 476.96 313.722 474.538 309.29L472.486 309.289L440.681 358.536L482.746 420.096L515.578 398.55L511.474 393.42L502.241 399.576L460.174 336.99L462.226 332.888C466.599 336.928 472.295 340.021 479.998 340.021Z" fill="#c55b47" fill-rule="evenodd" opacity="1" stroke="none"/>
<path d="M542.919 308.127L516.949 325.535L519.231 328.889C520.645 327.892 522.371 327.346 524.1 327.346C530.647 327.346 532.501 333.241 532.501 336.665L532.501 390.088L521.515 399.379C525.269 399.825 528.932 400.424 532.501 401.161L532.501 455.243L536.604 455.243L567.212 436.836L567.212 433.758C560.094 432.699 557.366 427.001 557.366 418.75L557.366 408.98C562.447 411.165 567.266 413.622 571.814 416.288C582.635 407.036 594.557 398.692 607.345 391.567L607.345 331.94L615.343 325.453L611.568 320.798L605.049 326.086L584.335 307.877L557.366 328.035L557.366 324.073C554.016 317.507 548.973 312.01 542.919 308.127ZM557.366 335.079L566.677 327.997L580.804 339.662L580.804 403.232C573.201 399.62 565.385 396.224 557.366 393.072L557.366 335.079Z" fill="#c55b47" fill-rule="evenodd" opacity="1" stroke="none"/>
<path d="M627.527 326.484C633.964 326.484 636.092 332.079 636.092 338.595C636.092 338.616 636.092 338.637 636.092 338.658L636.079 388.891L629.337 394.456L658.5 418.857L685.528 397.607C687.053 411.282 694.11 418.049 701.95 418.429L727.635 400.77L723.675 395.419L715.721 401.947C711.511 399.066 710.029 393.768 709.946 387.286L709.831 378.403L709.831 327.54L719.065 320.051L715.29 315.396L708.337 321.035L694.214 308.84L674.094 327.355L685.208 337.198L685.207 381.186L685.224 391.55L675.088 399.058L661.653 386.323L661.653 334.846C661.653 320.826 654.828 312.885 644.73 309.126L617.119 326.962L619.3 330.03C621.376 328.301 624.036 326.484 627.527 326.484Z" fill="#c55b47" fill-rule="evenodd" opacity="1" stroke="none"/>
<path d="M820.485 392.808L772.191 420.201L739.878 400.691L731.67 405.82L728.592 401.717L742.956 392.483L742.956 292.873C742.956 287.789 741.416 284.221 732.696 281.587L732.696 278.509L767.58 253.885L771.684 253.885L771.684 326.56L798.653 308.947L820.485 329.388L820.485 392.808ZM771.684 333.587L771.684 389.319L794.158 402.483L794.158 340.732L781.316 327.319L771.684 333.587Z" fill="#c55b47" fill-rule="evenodd" opacity="1" stroke="none"/>
</g>
<g opacity="1">
<path d="M317.345 383.221L317.345 330.477L329.245 319.331L341.969 329.869L341.969 384.427C341.969 406.52 334.189 427.34 318.37 427.34L318.37 432.468C320.567 432.786 322.787 432.945 325.008 432.945C362.228 432.945 369.672 406.473 369.671 384.427L369.666 323.296L378.876 315.826L375.101 311.172L366.657 318.02L344.021 299.089L317.345 324.073L317.345 244.712L313.241 244.712L278.357 269.336L278.358 272.413C288.612 275.535 288.617 280.217 288.617 283.7L288.617 381.169L274.253 390.403L277.9 395.336L286.108 390.206L308.111 408.871L334.787 390.403L330.949 385.577L324.303 390.198L317.345 383.221Z" fill="#ffd300" fill-rule="evenodd" opacity="1" stroke="none"/>
<path d="M398.639 283.7L398.639 381.169L384.274 390.403L387.353 394.507L395.56 389.377L418.132 408.871L444.808 390.403L441.73 386.299L435.574 391.429L427.366 383.221L427.366 244.712L423.262 244.712L388.378 269.336L388.379 272.413C393.898 274.094 398.639 276.386 398.639 283.7ZM470.825 330.848C488.111 330.848 494.944 315.303 497.171 300.117L493.068 300.117C490.648 304.545 485.696 308.332 479.227 308.332C472.75 308.332 467.787 304.549 465.365 300.117L463.313 300.115L431.508 349.363L473.573 410.923L506.405 389.377L502.301 384.247L493.068 390.403L451.001 327.817L453.053 323.714C457.425 327.755 463.122 330.848 470.825 330.848Z" fill="#ffd300" fill-rule="evenodd" opacity="1" stroke="none"/>
<path d="M533.745 298.954L507.775 316.362L510.058 319.716C511.472 318.719 513.198 318.173 514.927 318.173C521.474 318.173 523.328 324.068 523.328 327.492L523.328 380.915L512.342 390.206C516.096 390.652 519.759 391.251 523.328 391.988L523.328 446.07L527.431 446.07L558.039 427.663L558.039 424.585C550.92 423.526 548.193 417.828 548.193 409.576L548.193 399.807C553.274 401.991 558.093 404.449 562.641 407.115C573.462 397.863 585.384 389.519 598.171 382.393L598.171 322.767L606.17 316.28L602.395 311.625L595.875 316.912L575.162 298.704L548.193 318.862L548.193 314.9C544.843 308.334 539.8 302.837 533.745 298.954ZM548.193 325.906L557.504 318.824L571.63 330.489L571.63 394.059C564.027 390.447 556.212 387.051 548.193 383.899L548.193 325.906Z" fill="#ffd300" fill-rule="evenodd" opacity="1" stroke="none"/>
<path d="M618.353 317.311C624.791 317.311 626.919 322.906 626.919 329.422C626.919 329.443 626.919 329.464 626.919 329.485L626.906 379.718L620.164 385.283L649.327 409.683L676.355 388.434C677.879 402.109 684.937 408.876 692.777 409.255L718.462 391.597L714.502 386.246L706.547 392.774C702.338 389.893 700.856 384.595 700.773 378.113L700.658 369.23L700.658 318.366L709.892 310.878L706.117 306.223L699.164 311.862L685.041 299.667L664.921 318.182L676.035 328.025L676.034 372.013L676.051 382.377L665.915 389.885L652.48 377.149L652.48 325.673C652.48 311.653 645.654 303.711 635.557 299.952L607.946 317.789L610.127 320.857C612.203 319.128 614.863 317.311 618.353 317.311Z" fill="#ffd300" fill-rule="evenodd" opacity="1" stroke="none"/>
<path d="M811.312 383.635L763.018 411.028L730.705 391.517L722.497 396.647L719.419 392.543L733.783 383.309L733.783 283.7C733.783 278.615 732.243 275.048 723.523 272.413L723.523 269.336L758.407 244.712L762.511 244.712L762.511 317.387L789.48 299.774L811.312 320.215L811.312 383.635ZM762.511 324.414L762.511 380.146L784.985 393.309L784.985 331.559L772.142 318.146L762.511 324.414Z" fill="#ffd300" fill-rule="evenodd" opacity="1" stroke="none"/>
</g>
<path d="M366.477 910.376C362.937 910.581 360.252 913.657 360.457 917.199L364.643 989.15C364.848 992.691 367.868 995.375 371.408 995.17C374.948 994.965 377.632 991.946 377.428 988.405L373.3 916.453C373.095 912.913 370.018 910.171 366.477 910.376Z" fill="#000000" fill-rule="evenodd" opacity="1" stroke="none"/>
<path d="M341.595 915.651C339.605 916.033 338.289 917.961 338.671 919.951L351.514 986.685C351.896 988.675 353.823 989.991 355.813 989.609C357.804 989.227 359.12 987.299 358.737 985.309L345.895 918.575C345.513 916.585 343.585 915.268 341.595 915.651Z" fill="#000000" fill-rule="evenodd" opacity="1" stroke="none"/>
<path d="M378.288 910.491C377.403 910.175 376.394 910.172 375.478 910.605C373.647 911.473 372.89 913.704 373.758 915.536L407.814 987.373C408.682 989.204 410.856 989.961 412.687 989.093C414.518 988.225 415.332 986.051 414.464 984.22L380.409 912.383C379.975 911.467 379.172 910.807 378.288 910.491Z" fill="#000000" fill-rule="evenodd" opacity="1" stroke="none"/>
<path d="M402.768 906.535C401.837 906.417 400.875 906.66 400.074 907.28C398.472 908.522 398.202 910.781 399.443 912.383L458.438 988.52C459.679 990.122 461.939 990.392 463.54 989.15C465.142 987.909 465.469 985.649 464.228 984.048L405.234 907.911C404.613 907.11 403.7 906.653 402.768 906.535Z" fill="#000000" fill-rule="evenodd" opacity="1" stroke="none"/>
<path d="M400.418 873.053C399.482 872.973 398.498 873.26 397.723 873.913C396.174 875.219 396.015 877.524 397.322 879.073L490.143 989.15C491.449 990.699 493.811 990.916 495.36 989.609C496.909 988.303 497.068 985.998 495.761 984.449L402.94 874.372C402.287 873.597 401.353 873.132 400.418 873.053Z" fill="#000000" fill-rule="evenodd" opacity="1" stroke="none"/>
<path d="M404.431 820.766C403.495 820.697 402.503 820.964 401.736 821.626C400.203 822.951 400.011 825.308 401.335 826.843L536.238 983.016C537.562 984.55 539.863 984.684 541.397 983.36C542.931 982.035 543.123 979.734 541.799 978.2L406.896 822.027C406.234 821.261 405.368 820.835 404.431 820.766Z" fill="#000000" fill-rule="evenodd" opacity="1" stroke="none"/>
<path d="M306.393 669.237C302.874 669.677 300.393 672.885 300.832 676.404L307.081 726.684C307.52 730.203 310.729 732.685 314.248 732.245C317.767 731.806 320.305 728.598 319.866 725.079L313.56 674.856C313.121 671.337 309.912 668.798 306.393 669.237Z" fill="#000000" fill-rule="evenodd" opacity="1" stroke="none"/>
<path d="M309.489 699.451C307.581 698.769 305.47 699.722 304.788 701.63L290.512 741.648C289.83 743.556 290.84 745.667 292.748 746.349C294.656 747.031 296.767 746.021 297.449 744.113L311.725 704.153C312.407 702.244 311.398 700.133 309.489 699.451Z" fill="#000000" fill-rule="evenodd" opacity="1" stroke="none"/>
<path d="M351.686 690.966L314.305 691.941C310.76 692.034 307.963 694.988 308.056 698.534C308.149 702.079 311.104 704.876 314.649 704.783L352.03 703.809C355.575 703.716 358.371 700.76 358.279 697.215C358.186 693.67 355.231 690.874 351.686 690.966Z" fill="#000000" fill-rule="evenodd" opacity="1" stroke="none"/>
<path d="M540.365 908.312C536.82 908.223 533.861 911.016 533.772 914.561L532.052 983.016C531.963 986.561 534.756 989.52 538.302 989.609C541.847 989.698 544.806 986.905 544.895 983.36L546.615 914.905C546.704 911.36 543.911 908.402 540.365 908.312Z" fill="#000000" fill-rule="evenodd" opacity="1" stroke="none"/>
<path d="M489.913 465.365C487.461 465.864 485.451 467.745 484.925 470.352C484.831 470.817 484.661 471.675 484.467 472.818C484.149 474.691 483.844 476.772 483.549 479.067C482.35 488.399 481.857 497.972 482.46 506.988C483.562 523.459 488.159 536.027 497.882 542.877C500.781 544.92 504.784 544.228 506.826 541.33C508.869 538.43 508.177 534.428 505.278 532.386C499.506 528.319 496.114 519.104 495.245 506.128C494.705 498.055 495.176 489.301 496.277 480.73C496.549 478.611 496.848 476.648 497.137 474.939C497.308 473.932 497.413 473.213 497.481 472.875C498.183 469.399 495.969 466.066 492.493 465.365C491.624 465.189 490.731 465.198 489.913 465.365Z" fill="#000000" fill-rule="evenodd" opacity="1" stroke="none"/>
<path d="M488.767 502.63C486.878 501.897 484.741 502.805 484.008 504.694L458.553 570.225C457.819 572.114 458.785 574.25 460.674 574.983C462.563 575.717 464.642 574.751 465.375 572.862L490.831 507.389C491.564 505.5 490.656 503.364 488.767 502.63Z" fill="#000000" fill-rule="evenodd" opacity="1" stroke="none"/>
<path d="M496.162 497.872C494.246 497.212 492.178 498.191 491.519 500.108C490.859 502.024 491.839 504.15 493.754 504.809L537.614 519.887C539.53 520.547 541.598 519.51 542.257 517.594C542.917 515.678 541.88 513.61 539.964 512.95L496.162 497.872Z" fill="#000000" fill-rule="evenodd" opacity="1" stroke="none"/>
<path d="M785.173 652.783C781.628 652.849 778.8 655.772 778.867 659.319L779.784 709.771C779.851 713.317 782.774 716.087 786.32 716.02C789.866 715.954 792.693 713.031 792.627 709.485L791.709 659.09C791.643 655.544 788.719 652.717 785.173 652.783Z" fill="#000000" fill-rule="evenodd" opacity="1" stroke="none"/>
<path d="M781.332 683.857C780.408 684.023 779.56 684.573 778.982 685.405L759.661 713.211C758.504 714.875 758.914 717.157 760.578 718.314C762.242 719.47 764.524 719.06 765.681 717.396L785.001 689.59C786.158 687.926 785.748 685.644 784.084 684.488C783.252 683.91 782.256 683.691 781.332 683.857Z" fill="#000000" fill-rule="evenodd" opacity="1" stroke="none"/>
<path d="M790.161 684.43C788.231 683.814 786.191 684.907 785.575 686.838C784.959 688.769 785.995 690.809 787.925 691.425L832.243 705.586C834.174 706.202 836.213 705.109 836.83 703.178C837.446 701.247 836.41 699.208 834.479 698.591L790.161 684.43Z" fill="#000000" fill-rule="evenodd" opacity="1" stroke="none"/>
<path d="M755.246 874.773C751.714 874.452 748.573 877.033 748.252 880.563L745.442 911.695C745.121 915.227 747.702 918.368 751.233 918.689C754.765 919.01 757.907 916.373 758.227 912.841L761.037 881.767C761.358 878.236 758.777 875.094 755.246 874.773Z" fill="#000000" fill-rule="evenodd" opacity="1" stroke="none"/>
<path d="M318.546 1004.2C318.546 1004.2 348.962 1067.31 377.309 1091.86C400 1108.46 679.426 1083.45 700.3 1069.16C707.292 1049.66 711.771 1038.54 718.766 1018.1C698.86 1028.67 661.548 1012.89 705.549 964.904C717.093 963.88 775.966 957.514 775.966 957.514C775.966 957.514 791.92 933.234 791.261 902.773C713.147 916.578 618.965 940.523 618.965 940.523C618.965 940.523 617.574 964.108 617.374 973.182C559.828 986.149 330.629 988.916 296.126 979.982C295.376 989.661 300.888 1003.33 300.888 1003.33L318.546 1004.2Z" fill="#c45d46" fill-rule="evenodd" opacity="1" stroke="none"/>
<path d="M265.358 768.196L378.948 668.659C378.948 668.659 373.304 694.292 394.11 707.446C393.492 726.504 392.999 742.186 404.433 754.269C399.056 773.347 400.171 794.287 407.04 815.641C401.442 824.928 400.897 841.089 407.15 854.841C400.52 871.309 397.858 891.355 404.018 910.423C412.039 909.44 308.024 924.216 308.024 924.216C308.024 924.216 311.132 902.975 300.248 895.215C301.197 889.025 303.511 867.242 294.176 860.505C296.437 852.688 296.119 834.321 287.254 821.973C288.235 815.623 284.237 795.326 277.065 790.688C277.72 777.117 265.358 768.196 265.358 768.196Z" fill="#f0bfa1" fill-rule="evenodd" opacity="1" stroke="none"/>
<path d="M707.459 726.559L844.238 696.138C844.238 696.138 833.632 721.369 852.921 734.428C843.982 743.589 841.779 751.081 845.631 768.824C836.507 774.683 835.908 787.503 838.783 802.239C822.609 816.017 818.895 824.045 821.712 838.258C812.425 841.177 803.799 863.462 808.089 878.61C795.387 878.61 709.085 879.361 709.085 879.361C709.085 879.361 699.421 863.155 712.8 841.741C709.01 830.579 711.637 814.554 715.587 810.856C711.768 803.126 711.95 789.973 713.265 782.989C709.036 773.017 709.544 764.113 710.62 754.959C704.917 742.257 707.459 726.559 707.459 726.559Z" fill="#f0bfa1" fill-rule="evenodd" opacity="1" stroke="none"/>
<path d="M669.586 810.996C646.122 819.528 647.917 853.214 653.044 860.905C642.216 870.329 638.516 900.5 649.093 910.884C563.631 917.699 462.023 920.693 462.023 920.693C462.023 920.693 463.997 895.471 456.729 878.012C457.021 865.838 458.361 841.509 453.031 832.088C454.128 825.509 453.47 800.726 445.794 787.128C446.89 773.092 446.232 756.862 442.504 748.309C444.258 730.982 442.403 713.857 438.609 701.47C439.282 694.988 437.779 672.619 427.57 658.465C431.009 631.938 419.845 618.162 412.982 608.911C425.196 599.439 616.69 447.712 616.69 447.712C616.69 447.712 599.434 501.279 649.062 519.654C653.307 574.817 688.715 594.57 688.715 594.57C671.357 609.135 678.201 660.734 692.306 673.352C683.204 681.963 668.945 720.887 682.84 742.726C672.279 751.479 652.888 775.443 669.586 810.996" fill="#f0bfa1" fill-rule="evenodd" opacity="1" stroke="none"/>
<path d="M464.052 919.912L645.131 909.583C645.131 909.583 642.315 896.738 642.305 886.637C591.62 880.589 547.27 884.045 462.603 899.884C463.249 910.213 464.052 919.912 464.052 919.912Z" fill="#c45d46" fill-rule="evenodd" opacity="1" stroke="none"/>
<path d="M457.517 875.736L649.248 862.502C649.248 862.502 650.657 851.503 649.217 839.408C606.019 832.208 507.241 842.576 456.555 855.247C457.201 865.576 457.517 875.736 457.517 875.736Z" fill="#c45d46" fill-rule="evenodd" opacity="1" stroke="none"/>
<path d="M455.337 831.471L667.726 810.49C667.726 810.49 660.386 785.241 663.04 773.747C593.286 779.77 535.751 787.571 452.524 809.457C453.169 819.786 455.337 831.471 455.337 831.471Z" fill="#c45d46" fill-rule="evenodd" opacity="1" stroke="none"/>
<path d="M447.877 785L681.252 742.855C681.252 742.855 671.936 730.362 675.95 711.726C617.463 717.46 516.243 744.907 447.694 772.254C448.339 782.583 447.877 785 447.877 785Z" fill="#c45d46" fill-rule="evenodd" opacity="1" stroke="none"/>
<path d="M445.141 745.636L691.993 674.17C691.993 674.17 675.218 651.967 679.231 633.331C613.599 648.281 488.896 698.6 445.506 727.04C446.151 737.369 445.141 745.636 445.141 745.636Z" fill="#c45d46" fill-rule="evenodd" opacity="1" stroke="none"/>
<path d="M441.983 700.417L687.002 594.587C687.002 594.587 665.912 574.265 658.244 560.077C554.331 598.038 470.145 659.467 438.703 684.007C439.348 694.336 441.983 700.417 441.983 700.417Z" fill="#c45d46" fill-rule="evenodd" opacity="1" stroke="none"/>
<path d="M430.4 656.317L647.198 519.297C647.198 519.297 628.907 514.955 621.238 500.767C605.372 494.35 503.11 558.278 427.459 641.789C428.104 652.118 430.4 656.317 430.4 656.317Z" fill="#c45d46" fill-rule="evenodd" opacity="1" stroke="none"/>
<path d="M311.08 924.031L403.097 910.307C403.097 910.307 398.106 902.82 398.106 887.224C362.859 889.408 351.941 890.344 310.144 910.307C310.789 920.636 311.08 924.031 311.08 924.031Z" fill="#c45d46" fill-rule="evenodd" opacity="1" stroke="none"/>
<path d="M303.593 892.527L408.088 857.592C408.088 857.592 403.097 853.849 403.097 838.252C374.088 842.307 347.575 851.353 302.658 878.802C303.303 889.131 303.593 892.527 303.593 892.527Z" fill="#c45d46" fill-rule="evenodd" opacity="1" stroke="none"/>
<path d="M280.012 786.458L393.17 708.117C393.17 708.117 384.131 705.439 384.466 695.73C362.035 701.087 314.16 739.922 275.325 776.749C276.999 783.11 280.012 786.458 280.012 786.458Z" fill="#c45d46" fill-rule="evenodd" opacity="1" stroke="none"/>
<path d="M297.667 856.344L406.84 816.106C406.84 816.106 401.849 810.491 401.849 794.895C368.785 785.537 313.263 824.528 295.171 845.427C295.817 855.756 297.667 856.344 297.667 856.344Z" fill="#c45d46" fill-rule="evenodd" opacity="1" stroke="none"/>
<path d="M289.869 818.289L405.223 756.327C405.223 756.327 398.192 754.318 398.527 744.609C378.44 736.574 305.465 786.473 287.373 807.372C288.019 817.701 289.869 818.289 289.869 818.289Z" fill="#c45d46" fill-rule="evenodd" opacity="1" stroke="none"/>
<path d="M709.493 877.061L806.191 877.207C806.191 877.207 803.721 871.856 808.044 864.651C798.781 856.212 735.591 848.597 705.54 862.387C706.185 872.716 709.493 877.061 709.493 877.061Z" fill="#c45d46" fill-rule="evenodd" opacity="1" stroke="none"/>
<path d="M716.491 841.864L820.805 837.894C820.805 837.894 816.483 835.424 820.805 828.219C811.543 819.78 772.641 813.4 712.538 827.19C713.184 837.519 716.491 841.864 716.491 841.864Z" fill="#c45d46" fill-rule="evenodd" opacity="1" stroke="none"/>
<path d="M717.726 810.166L838.506 800.638C838.506 800.638 831.714 796.933 836.037 789.729C826.774 781.29 755.763 785.201 715.214 801.256C715.859 811.585 717.726 810.166 717.726 810.166Z" fill="#c45d46" fill-rule="evenodd" opacity="1" stroke="none"/>
<path d="M714.844 780.527L844.887 768.529C844.887 768.529 839.947 764.824 844.27 757.62C838.506 748.151 752.881 755.561 712.332 771.616C712.978 781.945 714.844 780.527 714.844 780.527Z" fill="#c45d46" fill-rule="evenodd" opacity="1" stroke="none"/>
<path d="M712.992 751.71L849.21 734.978C849.21 734.978 845.299 729.009 843.652 722.834C831.714 711.925 808.044 713.16 708.216 742.8C708.861 753.129 712.992 751.71 712.992 751.71Z" fill="#c45d46" fill-rule="evenodd" opacity="1" stroke="none"/>
<path d="M616.674 443.12C615.723 443.12 614.754 443.39 613.865 444.094C613.467 444.41 415.336 601.301 410.164 605.312C408.193 606.841 407.818 609.615 409.304 611.619C409.479 611.854 411.397 614.435 411.77 614.944C412.724 616.249 413.523 617.403 414.292 618.556C421.874 629.902 425.124 641.55 423.007 657.886C422.857 659.042 423.184 660.208 423.867 661.154C431.439 671.652 435.127 690.832 434.072 700.999C434.008 701.611 434.064 702.247 434.244 702.834C438.079 715.353 439.524 731.934 437.913 747.84C437.834 748.623 438 749.411 438.314 750.133C441.363 757.128 442.413 771.735 441.238 786.768C441.167 787.677 441.363 788.611 441.812 789.405C447.573 799.611 450.096 821.855 448.519 831.315C448.347 832.351 448.518 833.44 449.035 834.354C451.142 838.078 452.276 845.879 452.475 856.771C452.559 861.345 452.493 865.749 452.303 872.308C452.287 872.875 452.149 877.172 452.131 877.926C452.116 878.568 452.228 879.168 452.475 879.761C453.949 883.301 455.131 887.442 455.973 892.03C457.582 900.802 457.939 910.169 457.578 918.345C457.534 919.329 457.49 920.011 457.463 920.352C457.25 923.072 459.438 925.363 462.165 925.282C462.315 925.278 497.098 924.08 509.521 923.563C545.018 922.085 580.496 920.245 613.636 918.059C626.155 917.233 638.13 916.382 649.468 915.479C653.388 915.166 655.083 910.379 652.278 907.624C644.089 899.585 646.708 872.48 656.062 864.338C657.801 862.824 658.144 860.295 656.864 858.376C654.749 855.203 653.578 845.603 655.087 837.048C656.98 826.32 662.317 818.528 671.14 815.32C671.222 815.29 671.233 815.181 671.312 815.148C671.388 815.117 671.466 815.183 671.541 815.148C672.154 814.86 672.391 814.256 672.803 813.772C673.115 813.408 673.535 813.178 673.72 812.74C673.954 812.186 673.831 811.628 673.835 811.02C673.845 810.471 674.09 809.96 673.892 809.414C673.862 809.331 673.754 809.322 673.72 809.242C673.696 809.186 673.746 809.127 673.72 809.07C666.672 794.063 666.041 780.503 670.337 768.365C673.537 759.324 679.321 751.571 685.76 746.234C687.539 744.759 687.974 742.222 686.734 740.272C681.193 731.562 680.245 718.486 683.409 704.038C686.034 692.056 691.365 680.554 695.449 676.691C697.398 674.846 697.392 671.715 695.391 669.925C689.622 664.765 684.557 650.101 683.294 634.322C681.957 617.613 685.069 603.623 691.665 598.088C694.125 596.024 693.783 592.143 690.977 590.578C690.771 590.463 690.257 590.14 689.544 589.66C688.295 588.822 686.884 587.819 685.358 586.565C680.943 582.934 676.494 578.355 672.344 572.747C662.092 558.897 655.341 541.238 653.654 519.314C653.516 517.529 652.351 515.98 650.672 515.358C634.313 509.301 624.866 498.947 620.745 485.373C617.728 475.439 617.748 464.711 619.713 454.586C620.011 453.052 620.373 451.651 620.688 450.458C620.87 449.766 620.966 449.345 621.032 449.14C622.075 445.902 619.529 443.118 616.674 443.12ZM609.852 459.001C608.685 468.607 609.025 478.55 611.916 488.068C616.611 503.528 627.462 515.464 644.882 522.697C647.056 545.099 654.194 563.587 665.005 578.194C669.62 584.428 674.592 589.526 679.568 593.616C680.722 594.565 681.247 594.808 682.205 595.508C675.591 604.364 672.8 618.562 674.121 635.067C675.378 650.776 680.109 665.129 686.562 673.308C681.739 679.705 676.993 690.552 674.465 702.089C671.185 717.062 671.997 730.893 677.332 741.648C670.779 747.785 665.035 755.792 661.68 765.269C656.988 778.526 657.555 793.254 663.916 808.898C654.255 814.11 648.2 823.46 646.086 835.443C644.509 844.379 645.345 853.966 647.748 860.096C638.509 871.025 635.56 893.087 641.327 906.822C632.167 907.523 622.901 908.233 613.005 908.885C579.948 911.066 544.548 912.914 509.119 914.389C497.998 914.852 472.73 915.728 466.751 915.937C466.956 907.818 466.552 898.967 464.974 890.367C464.107 885.642 462.826 881.432 461.305 877.525C461.338 876.282 461.461 873.106 461.477 872.594C461.671 865.901 461.736 861.353 461.649 856.599C461.439 845.201 460.229 836.936 457.635 831.373C459.094 819.978 456.561 798.559 450.411 786.424C451.505 771.159 450.456 756.623 447.143 747.897C448.711 731.334 447.172 714.219 443.188 700.827C444.117 688.969 440.269 669.837 432.18 657.484C434.172 639.621 430.406 626.158 421.917 613.453C421.105 612.237 420.25 611.056 419.28 609.727C426.446 604.131 460.36 577.357 517.375 532.214C517.424 532.175 593.744 471.76 609.852 459.001Z" fill="#000000" fill-rule="evenodd" opacity="1" stroke="none"/>
<path d="M669.592 502.86C668.448 502.597 667.168 502.76 666.095 503.433L430.116 651.464C427.97 652.81 427.337 655.625 428.683 657.771C430.028 659.917 432.843 660.55 434.989 659.204L670.968 511.23C673.114 509.884 673.804 507.07 672.459 504.924C671.786 503.851 670.736 503.122 669.592 502.86Z" fill="#000000" fill-rule="evenodd" opacity="1" stroke="none"/>
<path d="M698.143 586.507L440.149 697.674C437.823 698.676 436.739 701.368 437.741 703.694C438.743 706.02 441.492 707.105 443.818 706.102L701.755 594.935C704.082 593.933 705.166 591.241 704.163 588.915C703.161 586.589 700.47 585.505 698.143 586.507Z" fill="#000000" fill-rule="evenodd" opacity="1" stroke="none"/>
<path d="M705.711 665.969L444.449 743.597C442.021 744.318 440.632 746.844 441.353 749.273C442.074 751.701 444.6 753.09 447.029 752.369L708.291 674.741C710.719 674.02 712.108 671.494 711.387 669.065C710.666 666.637 708.14 665.248 705.711 665.969Z" fill="#000000" fill-rule="evenodd" opacity="1" stroke="none"/>
<path d="M686.104 737.864L448.921 782.01C446.43 782.473 444.788 784.852 445.252 787.341C445.715 789.832 448.093 791.474 450.583 791.011L687.824 746.922C690.314 746.459 691.956 744.024 691.493 741.533C691.029 739.043 688.594 737.4 686.104 737.864Z" fill="#000000" fill-rule="evenodd" opacity="1" stroke="none"/>
<path d="M674.064 807.694L458.954 828.506C456.433 828.75 454.582 831.03 454.826 833.551C455.07 836.072 457.293 837.866 459.814 837.622L674.924 816.81C677.445 816.566 679.296 814.344 679.052 811.822C678.808 809.301 676.585 807.451 674.064 807.694Z" fill="#000000" fill-rule="evenodd" opacity="1" stroke="none"/>
<path d="M657.896 856.943L460.674 872.709C458.149 872.911 456.23 875.115 456.431 877.64C456.633 880.165 458.837 882.084 461.362 881.882L658.642 866.116C661.167 865.914 663.028 863.71 662.827 861.185C662.625 858.66 660.421 856.741 657.896 856.943Z" fill="#000000" fill-rule="evenodd" opacity="1" stroke="none"/>
<path d="M843.251 691.654L706.457 722.098C704.624 722.505 703.259 723.971 702.959 725.824C702.873 726.357 702.731 727.289 702.615 728.519C701.976 735.301 702.247 742.728 704.049 749.846C704.559 751.862 705.243 753.733 705.998 755.58C704.745 767.043 705.186 774.906 708.578 783.5C707.189 792.174 707.828 803.026 710.699 810.561C706.621 817.432 705.304 830.76 708.062 841.062C700.53 854.061 699.556 866.395 703.017 876.837C703.76 879.08 704.553 880.729 705.138 881.71C705.973 883.11 707.522 883.961 709.151 883.946C709.32 883.945 802.951 883.201 808.106 883.201C811.149 883.201 813.35 880.28 812.521 877.353C808.997 864.908 816.097 844.802 823.07 842.61C825.302 841.908 826.677 839.688 826.223 837.392C823.76 824.965 826.803 818.487 841.76 805.745C843.021 804.671 843.625 803.014 843.308 801.388C840.355 786.252 841.882 776.673 848.124 772.664C849.735 771.63 850.536 769.72 850.131 767.849C846.71 752.096 848.09 745.954 856.208 737.635C858.204 735.589 857.887 732.242 855.52 730.64C850.728 727.396 847.876 723.156 846.633 718.027C845.397 712.921 845.784 707.259 847.207 701.802C847.493 700.706 847.823 699.741 848.124 698.878C848.296 698.385 848.413 698.035 848.468 697.903C849.911 694.471 846.885 690.846 843.251 691.654ZM837.919 702.261C836.693 708.21 836.32 714.317 837.747 720.206C839.143 725.97 842.043 730.98 846.519 735.112C839.651 743.697 838.026 752.536 840.728 766.874C832.985 773.567 831.357 785.069 833.963 800.528C819.747 813.086 815.21 822.4 816.935 835.73C807.645 841.855 801.224 859.544 802.717 874.085C789.65 874.156 717.321 874.73 712.075 874.773C711.945 874.433 711.869 874.386 711.731 873.97C708.928 865.511 709.664 855.358 716.662 844.158C717.391 842.99 717.562 841.562 717.12 840.259C715.589 835.748 715.194 829.795 715.859 824.034C716.427 819.113 717.775 815.121 718.726 814.23C720.201 812.848 720.595 810.654 719.7 808.841C716.88 803.132 716.264 791.745 717.751 783.844C717.918 782.956 717.817 782.04 717.464 781.207C714.204 773.518 713.837 766.873 715.171 755.522C715.268 754.699 715.167 753.813 714.827 753.057C714.063 751.356 713.433 749.517 712.935 747.553C711.506 741.909 711.284 735.885 711.731 730.296L837.919 702.261Z" fill="#000000" fill-rule="evenodd" opacity="1" stroke="none"/>
<path d="M865.209 728.863L713.738 750.362C711.23 750.718 709.483 753.014 709.839 755.522C710.195 758.03 712.548 759.777 715.056 759.421L866.528 737.921C869.036 737.565 870.782 735.269 870.426 732.761C870.071 730.253 867.717 728.507 865.209 728.863Z" fill="#000000" fill-rule="evenodd" opacity="1" stroke="none"/>
<path d="M855.577 764.81L716.375 776.964C713.851 777.184 711.97 779.429 712.19 781.952C712.41 784.476 714.654 786.3 717.178 786.08L856.38 773.983C858.903 773.763 860.785 771.518 860.565 768.995C860.345 766.472 858.1 764.59 855.577 764.81Z" fill="#000000" fill-rule="evenodd" opacity="1" stroke="none"/>
<path d="M849.271 797.776L717.808 806.318C715.28 806.482 713.402 808.664 713.566 811.192C713.729 813.719 715.911 815.598 718.439 815.434L849.901 806.949C852.429 806.785 854.308 804.604 854.144 802.076C853.98 799.548 851.799 797.612 849.271 797.776Z" fill="#000000" fill-rule="evenodd" opacity="1" stroke="none"/>
<path d="M829.835 834.296L715.744 838.195C713.213 838.281 711.243 840.422 711.33 842.954C711.416 845.485 713.557 847.455 716.088 847.368L830.122 843.47C832.653 843.383 834.68 841.242 834.594 838.711C834.507 836.179 832.366 834.21 829.835 834.296Z" fill="#000000" fill-rule="evenodd" opacity="1" stroke="none"/>
<path d="M378.746 664.078C377.823 664.113 376.893 664.421 376.052 665.109C375.821 665.299 362.472 676.296 357.648 680.302C343.866 691.751 330.097 703.342 317.229 714.358C315.769 715.607 314.351 716.804 312.929 718.027C287.555 739.851 269.67 756.162 261.961 764.867L262.133 764.982C260.639 766.537 260.053 768.599 260.814 770.601C261.231 771.695 261.839 772.595 262.821 773.696C263.128 774.041 266.534 777.526 267.579 778.742C270.999 782.72 272.707 786.402 272.51 790.495C272.431 792.128 273.201 793.678 274.574 794.565C278.985 797.417 283.735 814.687 282.715 821.282C282.532 822.47 282.817 823.689 283.518 824.665C290.289 834.095 292.357 850.281 289.767 859.236C289.229 861.097 289.916 863.09 291.487 864.224C296.785 868.048 297.708 881.587 295.729 894.495C295.467 896.206 296.154 897.962 297.564 898.967C300.28 900.904 302.165 904.425 303.125 909.229C303.948 913.345 303.994 917.797 303.641 921.9C303.572 922.701 303.508 923.298 303.469 923.563C303.026 926.593 305.654 929.21 308.687 928.78C308.874 928.753 403.446 915.138 404.603 914.963C404.608 914.962 405.003 914.963 405.004 914.963C405.161 914.936 405.156 914.942 405.348 914.905C405.463 914.887 405.421 914.843 405.979 914.676C406.274 914.579 406.317 914.622 407.183 914.103L407.412 913.873L407.699 913.587L408.215 913.013L408.731 912.096L409.018 910.663L408.846 909L408.158 907.682L408.1 907.624C403.248 891.398 404.667 873.329 411.426 856.541C411.894 855.377 411.83 854.073 411.311 852.929C405.857 840.935 405.986 826.278 410.967 818.014C411.651 816.879 411.831 815.492 411.426 814.23C404.723 793.395 403.798 773.43 408.846 755.522C409.284 753.968 408.866 752.28 407.756 751.108C399.255 742.123 397.867 733.229 398.698 707.593C398.751 705.967 397.951 704.448 396.577 703.579C391.162 700.157 387.477 695.628 385.282 690.164C382.812 684.014 382.41 677.349 383.161 671.416C383.274 670.526 383.389 669.904 383.448 669.639C384.149 666.453 381.515 663.97 378.746 664.078ZM373.93 678.755C374.127 683.657 374.819 688.623 376.797 693.546C379.369 699.948 383.594 705.417 389.467 709.714C389.118 721.686 389.202 727.768 390.213 734.195C391.537 742.614 394.558 749.489 399.558 755.465C394.851 774.08 395.769 794.436 402.252 815.434C396.958 826.019 396.917 841.394 402.367 854.764C395.886 871.704 394.401 889.77 398.526 906.592C390.167 907.789 322.394 917.504 312.929 918.861C313.025 915.084 312.829 911.197 312.069 907.395C310.916 901.626 308.654 896.882 305.075 893.406C305.682 888.517 306 883.04 305.648 877.754C305.103 869.556 303.02 863.137 298.997 858.892C301.212 847.721 298.937 831.768 291.774 820.766C292.434 811.375 288.057 795.195 281.511 788.603C281.201 782.775 278.765 777.664 274.517 772.722C273.569 771.62 271.988 770.067 270.905 768.938C278.908 760.307 295.268 745.34 318.892 725.022C320.308 723.803 321.737 722.539 323.192 721.295C336.02 710.312 349.746 698.775 363.496 687.354C366.232 685.081 369.673 682.265 373.93 678.755Z" fill="#000000" fill-rule="evenodd" opacity="1" stroke="none"/>
<path d="M402.94 700.426C401.785 700.219 400.54 700.448 399.501 701.171L277.67 785.908C275.591 787.355 275.077 790.251 276.523 792.329C277.97 794.409 280.808 794.923 282.887 793.476L404.775 708.682C406.854 707.235 407.368 704.397 405.922 702.318C405.198 701.278 404.096 700.633 402.94 700.426Z" fill="#000000" fill-rule="evenodd" opacity="1" stroke="none"/>
<path d="M409.075 748.069C407.943 747.759 406.678 747.9 405.578 748.528L288.104 815.549C285.904 816.804 285.129 819.598 286.384 821.798C287.64 823.998 290.491 824.773 292.691 823.518L410.107 756.497C412.307 755.242 413.082 752.447 411.827 750.248C411.199 749.148 410.207 748.379 409.075 748.069Z" fill="#000000" fill-rule="evenodd" opacity="1" stroke="none"/>
<path d="M415.382 808.554L297.277 853.961C294.913 854.871 293.731 857.56 294.64 859.924C295.549 862.288 298.181 863.471 300.545 862.561L418.707 817.097C421.071 816.188 422.253 813.555 421.344 811.192C420.435 808.827 417.746 807.645 415.382 808.554Z" fill="#000000" fill-rule="evenodd" opacity="1" stroke="none"/>
<path d="M417.503 847.941L302.437 889.851C300.057 890.718 298.818 893.376 299.685 895.756C300.553 898.136 303.211 899.376 305.591 898.508L420.599 856.541C422.979 855.674 424.218 853.074 423.351 850.693C422.483 848.313 419.883 847.074 417.503 847.941Z" fill="#000000" fill-rule="evenodd" opacity="1" stroke="none"/>
<path d="M790.448 898.279C779.444 900.224 767.79 902.429 755.533 904.872C743.841 907.203 731.727 909.688 719.242 912.383C695.257 917.561 671.088 923.118 647.978 928.665C639.889 930.607 617.915 936.037 617.821 936.061C615.885 936.553 614.499 938.252 614.381 940.246C614.368 940.462 613.464 957.225 613.407 958.363C613.168 963.112 613.054 966.15 612.948 969.199C554.574 980.917 332.663 984.725 297.277 975.563C294.514 974.847 291.765 976.787 291.544 979.633C291.356 982.059 291.487 984.733 291.888 987.602C292.329 990.758 293.092 994.034 294.067 997.406C294.623 999.329 295.191 1001.18 295.787 1002.85C296.149 1003.87 296.474 1004.6 296.647 1005.03C297.316 1006.69 298.874 1007.81 300.66 1007.9C302.531 1007.99 311.335 1008.43 315.624 1008.64C316.012 1009.43 316.287 1009.97 316.541 1010.48C318.237 1013.83 320.174 1017.52 322.332 1021.54C328.497 1033.04 335.182 1044.56 342.111 1055.31C351.243 1069.48 360.117 1081.29 368.599 1089.94C370.527 1091.91 372.458 1093.71 374.332 1095.33L374.618 1095.56C386.376 1104.16 451.667 1103.63 539.849 1096.65C621.704 1090.17 691.975 1080.45 702.902 1072.97C703.698 1072.42 704.296 1071.64 704.622 1070.73C706.12 1066.56 713.627 1046.18 713.852 1045.57C717.45 1035.82 720.006 1028.58 723.083 1019.59C724.429 1015.66 720.277 1012.08 716.604 1014.03C708.078 1018.56 696.503 1017.06 691.894 1010.76C686.251 1003.06 690.462 988.702 707.89 969.256C713.044 968.78 723.775 967.681 740.282 965.931C740.802 965.876 776.323 962.105 776.459 962.09C777.821 961.942 779.032 961.171 779.784 960.026C780.331 959.193 781.223 957.714 782.364 955.611C784.24 952.153 786.124 948.196 787.868 943.858C793.108 930.822 796.144 916.932 795.837 902.694C795.776 899.882 793.218 897.789 790.448 898.279ZM786.492 908.312C786.007 919.324 783.513 930.201 779.383 940.475C777.776 944.473 776.052 948.037 774.338 951.197C773.923 951.961 773.556 952.576 773.191 953.203C769.059 953.642 709.523 959.923 705.138 960.312C703.998 960.414 702.93 960.96 702.157 961.803C681.091 984.779 675.479 1003.84 684.498 1016.15C690.188 1023.92 701.017 1027.1 711.272 1025.38C709.359 1030.82 707.554 1036.02 705.195 1042.41C704.987 1042.98 698.796 1059.89 696.653 1065.8C685.446 1071.88 616.259 1081.42 539.104 1087.53C455.625 1094.14 389.071 1094.64 380.065 1088.16L380.008 1088.16C378.411 1086.77 376.804 1085.22 375.134 1083.52C367.158 1075.38 358.617 1064.07 349.794 1050.38C343.011 1039.86 336.473 1028.54 330.415 1017.24C328.295 1013.29 326.403 1009.59 324.74 1006.29C324.159 1005.14 322.762 1002.4 322.676 1002.22C321.946 1000.71 320.455 999.726 318.777 999.642C316.95 999.552 308.588 999.116 304.157 998.897C303.717 997.618 303.308 996.31 302.896 994.884C302.034 991.901 301.379 989.019 301.004 986.341C300.947 985.932 300.99 985.644 300.947 985.252C349.222 993.752 564.95 989.727 618.394 977.684C620.45 977.221 621.903 975.376 621.949 973.269C622.017 970.198 622.26 965.198 622.58 958.822C622.626 957.899 623.149 948.39 623.382 944.145C627.315 943.172 642.912 939.333 650.099 937.609C673.145 932.077 697.222 926.546 721.134 921.384C733.573 918.698 745.669 916.194 757.31 913.873C767.554 911.831 777.127 910.005 786.492 908.312Z" fill="#000000" fill-rule="evenodd" opacity="1" stroke="none"/>
<path d="M691.837 979.805C602.126 1004.73 518.342 1010.04 321.644 1006.98C320.124 1006.96 318.858 1008.16 318.834 1009.68C318.811 1011.19 320.066 1012.46 321.586 1012.48C518.788 1015.56 602.901 1010.25 693.27 985.137C694.734 984.73 695.626 983.219 695.219 981.755C694.813 980.29 693.302 979.399 691.837 979.805Z" fill="#000000" fill-rule="evenodd" opacity="1" stroke="none"/>
<path d="M684.441 1001.53C602.81 1027.49 469.973 1035.83 336.665 1029.17C335.147 1029.09 333.874 1030.23 333.798 1031.75C333.722 1033.27 334.917 1034.54 336.435 1034.61C470.349 1041.31 603.695 1032.96 686.104 1006.75C687.552 1006.29 688.342 1004.76 687.881 1003.31C687.42 1001.86 685.889 1001.07 684.441 1001.53Z" fill="#000000" fill-rule="evenodd" opacity="1" stroke="none"/>
<path d="M697.857 1016.96C697.186 1016.74 696.411 1016.78 695.735 1017.13C668.707 1031.07 615.12 1045.03 555.558 1052.5C484.263 1061.45 410.676 1060.79 344.232 1048.6C342.738 1048.33 341.296 1049.34 341.022 1050.84C340.748 1052.33 341.763 1053.72 343.258 1053.99C410.295 1066.29 484.423 1066.96 556.246 1057.95C616.394 1050.4 670.563 1036.29 698.258 1022C699.609 1021.3 700.159 1019.63 699.462 1018.28C699.114 1017.6 698.528 1017.17 697.857 1016.96Z" fill="#000000" fill-rule="evenodd" opacity="1" stroke="none"/>
<path d="M713.508 959.452L600.621 971.549C598.103 971.819 596.281 974.133 596.551 976.652C596.821 979.171 599.078 980.993 601.596 980.723L714.483 968.568C717.002 968.298 718.823 966.042 718.554 963.523C718.284 961.004 716.028 959.182 713.508 959.452Z" fill="#000000" fill-rule="evenodd" opacity="1" stroke="none"/>
<path d="M255.941 1058.18C220.75 1059.59 192.692 1068.81 174.415 1085.18C173.834 1085.7 173.5 1086.41 173.497 1087.19C173.449 1103.77 173.573 1118.63 173.727 1131.33C173.769 1134.84 173.896 1143.58 173.899 1143.72C173.932 1145.21 175.158 1146.41 176.651 1146.41L908.495 1149.16C910.012 1149.17 911.238 1147.99 911.247 1146.47L911.648 1082.09C911.657 1080.52 910.348 1079.27 908.781 1079.33C878.354 1080.48 857.675 1078.9 831.096 1074.35C826.287 1073.52 808.742 1070.35 805.068 1069.7C767.39 1063.11 733.305 1059.9 679.854 1059.61C635.066 1059.37 599.578 1063.75 547.475 1073.89C490.765 1084.92 488.289 1085.39 467.84 1087.13C436.991 1089.76 409.577 1087.2 380.352 1077.96C333.46 1063.13 291.132 1056.76 255.941 1058.18Z" fill="#000000" fill-rule="evenodd" opacity="1" stroke="none"/>
<path d="M256.916 1063.62C291.2 1062.37 332.628 1068.67 378.689 1083.23C408.635 1092.7 436.761 1095.33 468.299 1092.63C489.04 1090.86 491.517 1090.42 548.507 1079.33C600.285 1069.26 635.438 1064.88 679.797 1065.12C732.932 1065.4 766.713 1068.55 804.093 1075.09C807.738 1075.73 825.335 1078.96 830.179 1079.79C856.236 1084.26 876.926 1085.84 906.144 1084.89L905.743 1143.66L179.345 1140.91C179.303 1138.39 179.264 1133.96 179.231 1131.22C179.082 1118.9 178.961 1104.49 179.001 1088.51C196.43 1073.4 223.2 1064.86 256.916 1063.62Z" fill="#1c575f" fill-rule="evenodd" opacity="1" stroke="none"/>
<path d="M255.941 1087.53C220.75 1088.95 192.692 1098.16 174.415 1114.54C173.834 1115.06 173.5 1115.76 173.497 1116.54C173.451 1132.42 173.824 1140.95 174.472 1144.06C174.846 1145.86 175.256 1146.81 176.937 1147.21C177.99 1147.47 178.77 1147.07 179.403 1146.53L909.355 1146.99C910.891 1146.99 912.129 1145.71 912.107 1144.18L911.648 1111.38C911.626 1109.84 910.325 1108.63 908.781 1108.69C878.354 1109.83 857.675 1108.25 831.096 1103.7C826.287 1102.88 808.742 1099.7 805.068 1099.06C767.39 1092.46 733.305 1089.25 679.854 1088.97C635.066 1088.73 599.578 1093.1 547.475 1103.24C490.765 1114.27 488.289 1114.74 467.84 1116.48C436.991 1119.12 409.577 1116.55 380.352 1107.31C333.46 1092.49 291.132 1086.12 255.941 1087.53ZM256.916 1092.98C291.2 1091.72 332.628 1098.02 378.689 1112.59C408.635 1122.05 436.761 1124.68 468.299 1121.99C489.04 1120.22 491.517 1119.78 548.507 1108.69C600.285 1098.61 635.438 1094.23 679.797 1094.47C732.932 1094.75 766.713 1097.9 804.093 1104.45C807.738 1105.08 825.335 1108.32 830.179 1109.15C856.254 1113.62 876.951 1115.2 906.201 1114.25L906.545 1141.48L179.804 1141.02C179.357 1138.02 179.051 1130.86 179.059 1117.86C196.488 1102.77 223.222 1094.22 256.916 1092.98ZM175.733 1142.63C175.647 1142.8 175.439 1142.9 175.389 1143.09C175.433 1142.98 175.478 1142.86 175.619 1142.69C175.644 1142.65 175.706 1142.66 175.733 1142.63Z" fill="#000000" fill-rule="evenodd" opacity="1" stroke="none"/>
<path d="M542.773 156.803C336.935 156.803 169.427 227.994 169.427 319.168L169.427 1144.75C169.427 1148.3 172.302 1151.17 175.848 1151.17L909.699 1151.17C913.245 1151.17 916.12 1148.3 916.12 1144.75L916.12 319.168C916.119 227.994 748.613 156.803 542.773 156.803ZM542.773 169.646C742.229 169.646 903.277 238.091 903.278 319.168L903.278 1138.33L182.269 1138.33L182.269 319.168C182.269 238.091 343.318 169.646 542.773 169.646Z" fill="#ffd300" fill-rule="evenodd" opacity="1" stroke="none"/>
</g>
<g opacity="1">
<path d="M1554.56 518.052C1554.56 522.212 1552.64 524.292 1548.8 524.292C1544.96 524.292 1542.24 520.132 1540.64 511.812C1540 506.052 1539.36 500.292 1538.72 494.532C1536.48 483.012 1532.8 473.252 1527.68 465.252C1520.96 454.692 1509.92 447.972 1494.56 445.092C1484.64 443.172 1476.64 442.372 1470.56 442.692C1455.52 443.332 1446.4 443.812 1443.2 444.132L1443.2 733.572C1443.2 745.092 1446.24 752.292 1452.32 755.172C1455.52 756.772 1464.48 757.732 1479.2 758.052C1483.04 758.372 1484.96 759.812 1484.96 762.372C1484.96 765.252 1482.4 766.692 1477.28 766.692C1474.72 766.692 1472.48 766.532 1470.56 766.212C1451.36 765.572 1437.76 765.252 1429.76 765.252C1419.2 765.252 1409.28 765.412 1400 765.732C1390.72 766.052 1378.88 766.212 1364.48 766.212C1357.12 766.212 1353.44 764.932 1353.44 762.372C1353.44 759.492 1360.32 757.892 1374.08 757.572C1384 757.572 1390.4 755.492 1393.28 751.332C1394.88 748.772 1395.68 742.212 1395.68 731.652L1395.68 444.132C1364 444.452 1344.32 446.052 1336.64 448.932C1316.48 456.292 1304.64 475.972 1301.12 507.972C1300.16 517.572 1297.92 522.372 1294.4 522.372C1290.56 522.372 1288.64 519.012 1288.64 512.292C1288.64 508.772 1288.8 505.252 1289.12 501.732L1290.08 490.692C1291.04 475.972 1292.48 456.612 1294.4 432.612L1316 432.612L1413.92 434.052C1425.44 434.372 1443.36 434.212 1467.68 433.572L1547.36 432.132C1548 450.052 1550.08 476.612 1553.6 511.812C1553.6 512.772 1553.76 513.972 1554.08 515.412C1554.4 516.852 1554.56 517.732 1554.56 518.052Z" fill="#000000" fill-rule="evenodd" opacity="1" stroke="none"/>
<path d="M1890.08 761.892C1890.08 764.772 1887.04 766.212 1880.96 766.212L1814.72 765.732C1810.24 765.732 1803.68 765.892 1795.04 766.212C1786.4 766.532 1780 766.692 1775.84 766.692C1769.44 766.692 1766.24 765.412 1766.24 762.852C1766.24 760.292 1773.76 758.532 1788.8 757.572C1796.8 756.932 1801.44 755.572 1802.72 753.492C1804 751.412 1804.64 743.972 1804.64 731.172L1804.64 591.012L1660.16 591.012L1660.16 726.852C1660.16 741.252 1661.28 749.732 1663.52 752.292C1665.76 754.852 1673.28 756.612 1686.08 757.572C1694.4 758.212 1698.56 759.652 1698.56 761.892C1698.56 764.772 1695.36 766.212 1688.96 766.212L1684.64 766.212C1676.96 766.212 1668.88 766.052 1660.4 765.732C1651.92 765.412 1646.88 765.252 1645.28 765.252C1640.8 765.252 1634.08 765.412 1625.12 765.732C1616.16 766.052 1602.72 766.212 1584.8 766.212C1578.4 766.212 1575.2 764.932 1575.2 762.372C1575.2 759.812 1578.4 758.212 1584.8 757.572C1588.96 757.252 1593.28 756.932 1597.76 756.612C1604.8 755.972 1609.28 754.372 1611.2 751.812C1612.16 750.212 1612.64 741.252 1612.64 724.932L1612.64 471.492C1612.64 457.092 1611.92 448.612 1610.48 446.052C1609.04 443.492 1604 442.052 1595.36 441.732C1585.44 441.092 1579.6 440.612 1577.84 440.292C1576.08 439.972 1575.2 438.692 1575.2 436.452C1575.2 433.892 1577.28 432.612 1581.44 432.612C1582.72 432.612 1585.44 432.772 1589.6 433.092C1597.6 433.732 1616.48 434.052 1646.24 434.052C1662.56 434.052 1673.92 433.892 1680.32 433.572C1682.56 433.252 1685.44 433.092 1688.96 433.092C1694.72 433.092 1697.6 434.692 1697.6 437.892C1697.6 440.772 1692.4 442.212 1682 442.212C1671.6 442.212 1665.36 443.412 1663.28 445.812C1661.2 448.212 1660.16 455.812 1660.16 468.612L1660.16 579.012L1804.64 579.012L1804.64 475.812C1804.64 458.852 1803.36 448.852 1800.8 445.812C1798.24 442.772 1789.28 441.412 1773.92 441.732C1769.12 441.732 1766.72 440.292 1766.72 437.412C1766.72 434.532 1769.44 433.092 1774.88 433.092L1777.28 433.092C1781.76 433.092 1789.6 433.092 1800.8 433.092C1812.32 433.412 1820.96 433.572 1826.72 433.572C1846.24 433.572 1859.44 433.412 1866.32 433.092C1873.2 432.772 1877.6 432.612 1879.52 432.612C1886.24 432.612 1889.6 434.052 1889.6 436.932C1889.6 439.812 1882.56 441.412 1868.48 441.732C1864.32 441.732 1861.28 442.052 1859.36 442.692C1856.16 443.652 1854.16 445.412 1853.36 447.972C1852.56 450.532 1852.16 458.052 1852.16 470.532L1852.16 725.892C1852.16 741.252 1852.96 750.212 1854.56 752.772C1857.76 756.292 1867.04 758.052 1882.4 758.052C1887.52 757.412 1890.08 758.692 1890.08 761.892Z" fill="#000000" fill-rule="evenodd" opacity="1" stroke="none"/>
<path d="M2173.28 688.452C2173.28 689.732 2172.96 697.572 2172.32 711.972C2171.68 726.372 2171.36 740.132 2171.36 753.252L2171.36 769.092C2140 767.492 2077.92 766.692 1985.12 766.692C1973.92 766.692 1962.88 766.852 1952 767.172C1941.12 767.172 1933.76 767.172 1929.92 767.172L1925.12 767.172C1919.04 767.172 1916 765.732 1916 762.852C1916 760.932 1916.96 759.812 1918.88 759.492C1919.84 759.492 1925.92 759.012 1937.12 758.052C1945.44 757.412 1950.48 755.652 1952.24 752.772C1954 749.892 1954.88 742.372 1954.88 730.212L1954.88 460.452C1954.88 451.172 1953.52 445.652 1950.8 443.892C1948.08 442.132 1939.36 441.252 1924.64 441.252C1919.52 441.252 1916.96 439.812 1916.96 436.932C1916.96 434.052 1920.48 432.612 1927.52 432.612L2009.6 433.092C2012.48 433.092 2030.56 432.932 2063.84 432.612C2097.12 432.612 2119.52 432.612 2131.04 432.612C2140.64 432.612 2149.44 431.972 2157.44 430.692C2158.08 444.452 2159.52 463.492 2161.76 487.812L2163.68 508.452C2164 510.052 2164.16 512.132 2164.16 514.692C2164.16 517.892 2162.72 519.492 2159.84 519.492C2156.32 519.492 2153.76 515.492 2152.16 507.492C2146.08 478.692 2136.16 460.452 2122.4 452.772C2112.16 447.012 2085.28 444.132 2041.76 444.132L2002.4 444.132L2002.4 584.772L2013.92 584.772C2049.76 584.772 2071.6 582.052 2079.44 576.612C2087.28 571.172 2092.64 555.332 2095.52 529.092C2096.16 522.372 2097.92 519.012 2100.8 519.012C2104.32 519.012 2106.08 521.892 2106.08 527.652C2106.08 533.412 2105.76 541.892 2105.12 553.092C2104.48 564.292 2104.16 572.772 2104.16 578.532C2104.16 612.772 2104.8 636.292 2106.08 649.092C2106.4 652.292 2106.56 655.012 2106.56 657.252C2106.56 661.412 2104.8 663.492 2101.28 663.492C2099.04 663.492 2097.52 662.132 2096.72 659.412C2095.92 656.692 2094.56 647.812 2092.64 632.772C2090.08 613.892 2082.24 602.212 2069.12 597.732C2063.36 595.812 2048.32 594.852 2024 594.852L2002.4 594.852L2002.4 756.132C2072.8 756.132 2114.08 754.692 2126.24 751.812C2147.36 747.012 2159.36 726.532 2162.24 690.372C2162.88 682.372 2164.96 678.372 2168.48 678.372C2171.68 678.372 2173.28 681.732 2173.28 688.452Z" fill="#000000" fill-rule="evenodd" opacity="1" stroke="none"/>
<path d="M2600.48 761.892C2600.48 764.772 2597.44 766.212 2591.36 766.212L2525.12 765.732C2520.64 765.732 2514.08 765.892 2505.44 766.212C2496.8 766.532 2490.4 766.692 2486.24 766.692C2479.84 766.692 2476.64 765.412 2476.64 762.852C2476.64 760.292 2484.16 758.532 2499.2 757.572C2507.2 756.932 2511.84 755.572 2513.12 753.492C2514.4 751.412 2515.04 743.972 2515.04 731.172L2515.04 591.012L2370.56 591.012L2370.56 726.852C2370.56 741.252 2371.68 749.732 2373.92 752.292C2376.16 754.852 2383.68 756.612 2396.48 757.572C2404.8 758.212 2408.96 759.652 2408.96 761.892C2408.96 764.772 2405.76 766.212 2399.36 766.212L2395.04 766.212C2387.36 766.212 2379.28 766.052 2370.8 765.732C2362.32 765.412 2357.28 765.252 2355.68 765.252C2351.2 765.252 2344.48 765.412 2335.52 765.732C2326.56 766.052 2313.12 766.212 2295.2 766.212C2288.8 766.212 2285.6 764.932 2285.6 762.372C2285.6 759.812 2288.8 758.212 2295.2 757.572C2299.36 757.252 2303.68 756.932 2308.16 756.612C2315.2 755.972 2319.68 754.372 2321.6 751.812C2322.56 750.212 2323.04 741.252 2323.04 724.932L2323.04 471.492C2323.04 457.092 2322.32 448.612 2320.88 446.052C2319.44 443.492 2314.4 442.052 2305.76 441.732C2295.84 441.092 2290 440.612 2288.24 440.292C2286.48 439.972 2285.6 438.692 2285.6 436.452C2285.6 433.892 2287.68 432.612 2291.84 432.612C2293.12 432.612 2295.84 432.772 2300 433.092C2308 433.732 2326.88 434.052 2356.64 434.052C2372.96 434.052 2384.32 433.892 2390.72 433.572C2392.96 433.252 2395.84 433.092 2399.36 433.092C2405.12 433.092 2408 434.692 2408 437.892C2408 440.772 2402.8 442.212 2392.4 442.212C2382 442.212 2375.76 443.412 2373.68 445.812C2371.6 448.212 2370.56 455.812 2370.56 468.612L2370.56 579.012L2515.04 579.012L2515.04 475.812C2515.04 458.852 2513.76 448.852 2511.2 445.812C2508.64 442.772 2499.68 441.412 2484.32 441.732C2479.52 441.732 2477.12 440.292 2477.12 437.412C2477.12 434.532 2479.84 433.092 2485.28 433.092L2487.68 433.092C2492.16 433.092 2500 433.092 2511.2 433.092C2522.72 433.412 2531.36 433.572 2537.12 433.572C2556.64 433.572 2569.84 433.412 2576.72 433.092C2583.6 432.772 2588 432.612 2589.92 432.612C2596.64 432.612 2600 434.052 2600 436.932C2600 439.812 2592.96 441.412 2578.88 441.732C2574.72 441.732 2571.68 442.052 2569.76 442.692C2566.56 443.652 2564.56 445.412 2563.76 447.972C2562.96 450.532 2562.56 458.052 2562.56 470.532L2562.56 725.892C2562.56 741.252 2563.36 750.212 2564.96 752.772C2568.16 756.292 2577.44 758.052 2592.8 758.052C2597.92 757.412 2600.48 758.692 2600.48 761.892Z" fill="#000000" fill-rule="evenodd" opacity="1" stroke="none"/>
<path d="M2939.36 601.572C2939.36 649.252 2925.04 689.572 2896.4 722.532C2867.76 755.492 2832.64 771.972 2791.04 771.972C2746.88 771.972 2709.76 755.252 2679.68 721.812C2649.6 688.372 2634.56 647.172 2634.56 598.212C2634.56 548.292 2649.04 507.412 2678 475.572C2706.96 443.732 2744 427.812 2789.12 427.812C2831.68 427.812 2867.36 444.452 2896.16 477.732C2924.96 511.012 2939.36 552.292 2939.36 601.572ZM2885.6 603.972C2885.6 545.412 2873.6 499.812 2849.6 467.172C2834.56 446.692 2813.6 436.452 2786.72 436.452C2761.12 436.452 2741.28 444.292 2727.2 459.972C2701.28 488.772 2688.32 535.652 2688.32 600.612C2688.32 652.132 2697.36 692.132 2715.44 720.612C2733.52 749.092 2758.88 763.332 2791.52 763.332C2821.92 763.332 2844.8 749.892 2860.16 723.012C2877.12 693.252 2885.6 653.572 2885.6 603.972Z" fill="#000000" fill-rule="evenodd" opacity="1" stroke="none"/>
<path d="M3267.68 437.412C3267.68 440.612 3263.68 442.052 3255.68 441.732L3245.12 441.252L3236.48 441.252C3231.36 441.252 3228.32 442.132 3227.36 443.892C3226.4 445.652 3225.92 451.012 3225.92 459.972L3225.92 736.452C3225.92 753.412 3225.76 763.332 3225.44 766.212C3225.12 769.092 3224.16 770.532 3222.56 770.532C3220.64 770.532 3218.4 768.772 3215.84 765.252L3154.4 675.492C3118.88 623.332 3075.68 558.212 3024.8 480.132L3025.28 747.972C3025.6 752.132 3028 754.772 3032.48 755.892C3036.96 757.012 3047.68 757.732 3064.64 758.052C3068.8 758.052 3070.88 759.332 3070.88 761.892C3070.88 765.092 3066.72 766.692 3058.4 766.692C3055.52 766.692 3046.4 766.212 3031.04 765.252C3025.92 764.932 3020.96 764.772 3016.16 764.772C3016.48 764.772 3013.68 765.092 3007.76 765.732C3001.84 766.372 2992.8 766.692 2980.64 766.692L2975.84 766.692C2968.48 766.692 2964.8 765.252 2964.8 762.372C2964.8 759.492 2968 758.052 2974.4 758.052C2993.28 757.732 3004.24 756.532 3007.28 754.452C3010.32 752.372 3011.84 745.572 3011.84 734.052L3011.84 497.412C3011.84 470.852 3006.4 454.212 2995.52 447.492C2990.4 444.292 2981.28 442.692 2968.16 442.692C2959.84 442.692 2955.68 441.092 2955.68 437.892C2955.68 435.012 2958.08 433.572 2962.88 433.572C2969.28 433.572 2977.44 433.732 2987.36 434.052C2997.28 434.372 3002.56 434.532 3003.2 434.532C3004.16 434.532 3008.64 434.372 3016.64 434.052C3027.2 434.052 3037.44 433.892 3047.36 433.572L3212.96 679.812L3212.96 466.212C3212.96 456.292 3212.8 450.292 3212.48 448.212C3212.16 446.132 3210.88 444.532 3208.64 443.412C3206.4 442.292 3198.72 441.732 3185.6 441.732C3174.08 441.732 3168.32 440.292 3168.32 437.412C3168.32 434.212 3172.16 432.612 3179.84 432.612L3196.64 432.612C3200.8 432.612 3205.28 432.612 3210.08 432.612C3215.2 432.932 3218.24 433.092 3219.2 433.092C3219.52 433.092 3222.4 432.932 3227.84 432.612C3232.96 432.612 3237.76 432.612 3242.24 432.612L3257.12 432.612C3264.16 432.612 3267.68 434.212 3267.68 437.412Z" fill="#000000" fill-rule="evenodd" opacity="1" stroke="none"/>
<path d="M3604.16 664.932C3604.16 667.812 3602.72 669.252 3599.84 669.252L3588.8 668.772C3574.08 668.132 3565.76 670.692 3563.84 676.452C3562.56 680.292 3561.92 694.212 3561.92 718.212L3561.92 733.572C3545.6 747.652 3529.84 757.572 3514.64 763.332C3499.44 769.092 3481.28 771.972 3460.16 771.972C3409.6 771.972 3369.44 756.852 3339.68 726.612C3309.92 696.372 3295.04 655.332 3295.04 603.492C3295.04 551.012 3309.6 508.612 3338.72 476.292C3367.84 443.972 3406.24 427.812 3453.92 427.812C3474.72 427.812 3497.44 433.572 3522.08 445.092C3529.44 448.612 3535.52 450.372 3540.32 450.372C3546.4 450.372 3550.4 446.532 3552.32 438.852C3553.92 434.372 3555.84 432.132 3558.08 432.132C3560.64 432.132 3561.92 433.412 3561.92 435.972C3561.92 436.932 3561.6 440.292 3560.96 446.052C3559.04 464.292 3558.08 477.412 3558.08 485.412L3558.56 516.612C3558.88 527.812 3559.04 532.772 3559.04 531.492C3558.4 539.172 3556.32 543.012 3552.8 543.012C3549.92 543.012 3548.32 540.772 3548 536.292C3546.4 505.252 3537.44 480.852 3521.12 463.092C3504.8 445.332 3483.36 436.452 3456.8 436.452C3423.52 436.452 3397.2 451.332 3377.84 481.092C3358.48 510.852 3348.8 551.332 3348.8 602.532C3348.8 651.812 3358.64 690.932 3378.32 719.892C3398 748.852 3424.64 763.332 3458.24 763.332C3483.84 763.332 3501.44 755.972 3511.04 741.252C3515.84 733.892 3518.24 720.612 3518.24 701.412C3518.24 685.412 3516.72 675.972 3513.68 673.092C3510.64 670.212 3500.16 668.932 3482.24 669.252C3477.76 669.252 3474.88 669.012 3473.6 668.532C3472.32 668.052 3471.68 667.012 3471.68 665.412C3471.68 661.892 3475.2 660.132 3482.24 660.132L3490.88 660.132C3495.68 661.092 3512.64 661.412 3541.76 661.092L3582.08 660.612C3584.32 660.612 3586.72 660.452 3589.28 660.132C3591.84 660.132 3593.6 660.132 3594.56 660.132C3600.96 660.132 3604.16 661.732 3604.16 664.932Z" fill="#000000" fill-rule="evenodd" opacity="1" stroke="none"/>
<path d="M4016 762.372C4016 765.252 4013.76 766.692 4009.28 766.692L4005.44 766.692L3947.84 766.212L3891.68 766.692C3889.76 767.012 3887.68 767.172 3885.44 767.172C3879.36 767.172 3876.32 765.892 3876.32 763.332C3876.32 760.772 3880.32 759.172 3888.32 758.532C3904.96 756.932 3913.28 754.212 3913.28 750.372C3913.28 746.212 3869.6 694.212 3782.24 594.372L3782.24 733.092C3782.24 744.292 3784 751.252 3787.52 753.972C3791.04 756.692 3800.48 758.052 3815.84 758.052C3819.36 758.052 3821.12 759.652 3821.12 762.852C3821.12 765.732 3818.88 767.172 3814.4 767.172C3811.2 767.172 3808.32 767.012 3805.76 766.692L3739.04 765.732C3734.88 765.732 3730 765.972 3724.4 766.452C3718.8 766.932 3713.12 767.172 3707.36 767.172L3703.04 767.172C3698.24 767.172 3695.84 765.732 3695.84 762.852C3695.84 759.652 3701.76 757.892 3713.6 757.572C3724.48 757.252 3730.88 754.852 3732.8 750.372C3733.76 748.772 3734.24 738.692 3734.24 720.132L3733.76 452.772C3733.44 446.052 3724.8 442.692 3707.84 442.692C3700.16 442.692 3696.32 440.932 3696.32 437.412C3696.32 434.532 3699.04 433.092 3704.48 433.092C3706.08 433.092 3708.16 433.252 3710.72 433.572C3715.84 434.212 3730.08 434.532 3753.44 434.532C3778.4 434.532 3794.24 434.212 3800.96 433.572C3804.48 433.252 3808.16 433.092 3812 433.092C3817.76 433.092 3820.64 434.852 3820.64 438.372C3820.64 440.292 3819.76 441.492 3818 441.972C3816.24 442.452 3810.72 442.852 3801.44 443.172C3792.16 443.492 3786.64 444.772 3784.88 447.012C3783.12 449.252 3782.24 456.452 3782.24 468.612L3782.24 585.732L3823.04 544.932C3884.8 483.172 3915.68 451.012 3915.68 448.452C3915.68 444.292 3908.16 442.372 3893.12 442.692C3883.52 443.012 3878.72 441.412 3878.72 437.892C3878.72 435.652 3880.96 434.372 3885.44 434.052C3889.92 433.732 3905.44 433.572 3932 433.572L3958.4 433.572C3969.6 433.572 3976 433.732 3977.6 434.052C3980.8 434.692 3982.4 436.292 3982.4 438.852C3982.4 442.372 3978.88 444.132 3971.84 444.132C3957.12 443.812 3947.68 444.132 3943.52 445.092C3939.36 446.052 3935.2 448.612 3931.04 452.772C3910.24 474.532 3878.56 507.172 3836 550.692L3823.52 563.172L3817.28 569.892C3819.2 572.132 3827.2 580.772 3841.28 595.812C3868.16 623.652 3906.72 668.292 3956.96 729.732C3967.52 742.532 3974.8 750.212 3978.8 752.772C3982.8 755.332 3990.56 756.932 4002.08 757.572C4011.36 758.212 4016 759.812 4016 762.372Z" fill="#000000" fill-rule="evenodd" opacity="1" stroke="none"/>
<path d="M4328 601.572C4328 649.252 4313.68 689.572 4285.04 722.532C4256.4 755.492 4221.28 771.972 4179.68 771.972C4135.52 771.972 4098.4 755.252 4068.32 721.812C4038.24 688.372 4023.2 647.172 4023.2 598.212C4023.2 548.292 4037.68 507.412 4066.64 475.572C4095.6 443.732 4132.64 427.812 4177.76 427.812C4220.32 427.812 4256 444.452 4284.8 477.732C4313.6 511.012 4328 552.292 4328 601.572ZM4274.24 603.972C4274.24 545.412 4262.24 499.812 4238.24 467.172C4223.2 446.692 4202.24 436.452 4175.36 436.452C4149.76 436.452 4129.92 444.292 4115.84 459.972C4089.92 488.772 4076.96 535.652 4076.96 600.612C4076.96 652.132 4086 692.132 4104.08 720.612C4122.16 749.092 4147.52 763.332 4180.16 763.332C4210.56 763.332 4233.44 749.892 4248.8 723.012C4265.76 693.252 4274.24 653.572 4274.24 603.972Z" fill="#000000" fill-rule="evenodd" opacity="1" stroke="none"/>
<path d="M4656.32 437.412C4656.32 440.612 4652.32 442.052 4644.32 441.732L4633.76 441.252L4625.12 441.252C4620 441.252 4616.96 442.132 4616 443.892C4615.04 445.652 4614.56 451.012 4614.56 459.972L4614.56 736.452C4614.56 753.412 4614.4 763.332 4614.08 766.212C4613.76 769.092 4612.8 770.532 4611.2 770.532C4609.28 770.532 4607.04 768.772 4604.48 765.252L4543.04 675.492C4507.52 623.332 4464.32 558.212 4413.44 480.132L4413.92 747.972C4414.24 752.132 4416.64 754.772 4421.12 755.892C4425.6 757.012 4436.32 757.732 4453.28 758.052C4457.44 758.052 4459.52 759.332 4459.52 761.892C4459.52 765.092 4455.36 766.692 4447.04 766.692C4444.16 766.692 4435.04 766.212 4419.68 765.252C4414.56 764.932 4409.6 764.772 4404.8 764.772C4405.12 764.772 4402.32 765.092 4396.4 765.732C4390.48 766.372 4381.44 766.692 4369.28 766.692L4364.48 766.692C4357.12 766.692 4353.44 765.252 4353.44 762.372C4353.44 759.492 4356.64 758.052 4363.04 758.052C4381.92 757.732 4392.88 756.532 4395.92 754.452C4398.96 752.372 4400.48 745.572 4400.48 734.052L4400.48 497.412C4400.48 470.852 4395.04 454.212 4384.16 447.492C4379.04 444.292 4369.92 442.692 4356.8 442.692C4348.48 442.692 4344.32 441.092 4344.32 437.892C4344.32 435.012 4346.72 433.572 4351.52 433.572C4357.92 433.572 4366.08 433.732 4376 434.052C4385.92 434.372 4391.2 434.532 4391.84 434.532C4392.8 434.532 4397.28 434.372 4405.28 434.052C4415.84 434.052 4426.08 433.892 4436 433.572L4601.6 679.812L4601.6 466.212C4601.6 456.292 4601.44 450.292 4601.12 448.212C4600.8 446.132 4599.52 444.532 4597.28 443.412C4595.04 442.292 4587.36 441.732 4574.24 441.732C4562.72 441.732 4556.96 440.292 4556.96 437.412C4556.96 434.212 4560.8 432.612 4568.48 432.612L4585.28 432.612C4589.44 432.612 4593.92 432.612 4598.72 432.612C4603.84 432.932 4606.88 433.092 4607.84 433.092C4608.16 433.092 4611.04 432.932 4616.48 432.612C4621.6 432.612 4626.4 432.612 4630.88 432.612L4645.76 432.612C4652.8 432.612 4656.32 434.212 4656.32 437.412Z" fill="#000000" fill-rule="evenodd" opacity="1" stroke="none"/>
<path d="M4992.8 664.932C4992.8 667.812 4991.36 669.252 4988.48 669.252L4977.44 668.772C4962.72 668.132 4954.4 670.692 4952.48 676.452C4951.2 680.292 4950.56 694.212 4950.56 718.212L4950.56 733.572C4934.24 747.652 4918.48 757.572 4903.28 763.332C4888.08 769.092 4869.92 771.972 4848.8 771.972C4798.24 771.972 4758.08 756.852 4728.32 726.612C4698.56 696.372 4683.68 655.332 4683.68 603.492C4683.68 551.012 4698.24 508.612 4727.36 476.292C4756.48 443.972 4794.88 427.812 4842.56 427.812C4863.36 427.812 4886.08 433.572 4910.72 445.092C4918.08 448.612 4924.16 450.372 4928.96 450.372C4935.04 450.372 4939.04 446.532 4940.96 438.852C4942.56 434.372 4944.48 432.132 4946.72 432.132C4949.28 432.132 4950.56 433.412 4950.56 435.972C4950.56 436.932 4950.24 440.292 4949.6 446.052C4947.68 464.292 4946.72 477.412 4946.72 485.412L4947.2 516.612C4947.52 527.812 4947.68 532.772 4947.68 531.492C4947.04 539.172 4944.96 543.012 4941.44 543.012C4938.56 543.012 4936.96 540.772 4936.64 536.292C4935.04 505.252 4926.08 480.852 4909.76 463.092C4893.44 445.332 4872 436.452 4845.44 436.452C4812.16 436.452 4785.84 451.332 4766.48 481.092C4747.12 510.852 4737.44 551.332 4737.44 602.532C4737.44 651.812 4747.28 690.932 4766.96 719.892C4786.64 748.852 4813.28 763.332 4846.88 763.332C4872.48 763.332 4890.08 755.972 4899.68 741.252C4904.48 733.892 4906.88 720.612 4906.88 701.412C4906.88 685.412 4905.36 675.972 4902.32 673.092C4899.28 670.212 4888.8 668.932 4870.88 669.252C4866.4 669.252 4863.52 669.012 4862.24 668.532C4860.96 668.052 4860.32 667.012 4860.32 665.412C4860.32 661.892 4863.84 660.132 4870.88 660.132L4879.52 660.132C4884.32 661.092 4901.28 661.412 4930.4 661.092L4970.72 660.612C4972.96 660.612 4975.36 660.452 4977.92 660.132C4980.48 660.132 4982.24 660.132 4983.2 660.132C4989.6 660.132 4992.8 661.732 4992.8 664.932Z" fill="#000000" fill-rule="evenodd" opacity="1" stroke="none"/>
<path d="M5310.56 512.772C5310.56 543.812 5297.28 567.972 5270.72 585.252C5254.08 596.132 5232.96 601.572 5207.36 601.572C5196.48 601.572 5184.16 600.452 5170.4 598.212L5170.4 734.532C5170.4 741.892 5170.72 746.532 5171.36 748.452C5172.96 752.932 5176.48 755.652 5181.92 756.612C5191.2 757.892 5200.16 758.532 5208.8 758.532C5212.32 758.532 5214.08 759.652 5214.08 761.892C5214.08 765.092 5211.84 766.692 5207.36 766.692C5205.44 766.692 5203.84 766.532 5202.56 766.212C5184.96 766.532 5151.84 766.692 5103.2 766.692L5096.96 766.692C5087.36 766.692 5082.56 765.092 5082.56 761.892C5082.56 759.652 5085.92 758.532 5092.64 758.532C5107.68 758.532 5116.32 757.092 5118.56 754.212C5121.12 752.932 5122.56 749.732 5122.88 744.612L5122.88 461.412C5122.88 451.492 5120.16 445.412 5114.72 443.172C5111.52 441.892 5105.92 441.252 5097.92 441.252L5093.12 441.252C5092.16 441.572 5091.04 441.732 5089.76 441.732C5084.96 441.732 5082.56 440.292 5082.56 437.412C5082.56 434.212 5087.04 432.612 5096 432.612L5201.6 432.612C5238.08 432.612 5264.8 439.012 5281.76 451.812C5300.96 466.212 5310.56 486.532 5310.56 512.772ZM5260.16 513.732C5260.16 465.732 5240 441.732 5199.68 441.732C5186.24 441.732 5177.44 443.972 5173.28 448.452C5171.36 450.372 5170.4 455.332 5170.4 463.332L5170.4 591.012C5172.96 591.332 5175.84 591.492 5179.04 591.492C5200.16 591.492 5218.08 586.852 5232.8 577.572C5251.04 566.052 5260.16 544.772 5260.16 513.732Z" fill="#000000" fill-rule="evenodd" opacity="1" stroke="none"/>
<path d="M5628.8 437.412C5628.8 440.292 5625.92 441.732 5620.16 441.732C5619.2 441.732 5616 441.572 5610.56 441.252C5608.96 440.932 5606.72 440.772 5603.84 440.772C5595.84 440.772 5591.04 442.852 5589.44 447.012C5588.8 449.252 5588.48 452.932 5588.48 458.052L5588.48 638.052C5588.48 684.772 5579.76 718.772 5562.32 740.052C5544.88 761.332 5516.8 771.972 5478.08 771.972C5431.68 771.972 5399.04 758.852 5380.16 732.612C5367.68 715.012 5361.44 686.052 5361.44 645.732L5360.96 453.252C5360 447.492 5356.16 443.972 5349.44 442.692C5347.52 442.372 5341.6 442.212 5331.68 442.212C5326.24 441.572 5323.52 439.972 5323.52 437.412C5323.52 434.532 5325.76 433.092 5330.24 433.092L5338.88 433.092C5340.48 433.092 5344.16 433.252 5349.92 433.572C5355.04 433.572 5359.68 433.572 5363.84 433.572L5432.48 433.092C5434.08 432.772 5436 432.612 5438.24 432.612C5443.68 432.612 5446.4 434.372 5446.4 437.892C5446.4 440.132 5445.44 441.412 5443.52 441.732C5441.6 442.052 5435.2 442.372 5424.32 442.692C5419.84 442.692 5416.8 443.012 5415.2 443.652C5412 444.932 5410.24 447.172 5409.92 450.372C5409.6 451.652 5409.44 460.772 5409.44 477.732L5409.44 649.572C5409.44 691.812 5416.16 720.612 5429.6 735.972C5443.04 751.332 5463.04 759.012 5489.6 759.012C5538.24 759.012 5565.76 731.332 5572.16 675.972C5573.12 667.652 5573.6 632.452 5573.6 570.372L5573.6 543.012L5574.08 504.612L5573.6 471.492C5573.6 468.292 5573.6 464.772 5573.6 460.932C5573.92 456.772 5574.08 455.012 5574.08 455.652C5574.08 448.612 5570.72 444.292 5564 442.692C5561.76 442.052 5555.2 441.732 5544.32 441.732C5537.92 441.732 5534.72 439.972 5534.72 436.452C5534.72 433.572 5536.96 432.132 5541.44 432.132C5544 432.132 5546.08 432.292 5547.68 432.612C5551.52 432.932 5565.44 433.092 5589.44 433.092C5592.96 433.092 5596.96 432.932 5601.44 432.612C5605.6 432.612 5608.64 432.612 5610.56 432.612L5617.76 432.612C5625.12 432.612 5628.8 434.212 5628.8 437.412Z" fill="#000000" fill-rule="evenodd" opacity="1" stroke="none"/>
<path d="M5884.64 678.852C5884.64 711.492 5869.76 735.652 5840 751.332C5825.6 759.012 5804.96 763.812 5778.08 765.732C5770.72 766.052 5748.96 766.212 5712.8 766.212L5654.24 766.212C5648.8 766.212 5646.08 764.772 5646.08 761.892C5646.08 759.012 5651.04 757.572 5660.96 757.572C5672.48 757.572 5679.28 756.372 5681.36 753.972C5683.44 751.572 5684.48 744.292 5684.48 732.132L5684.48 472.452C5684.48 458.372 5683.84 450.212 5682.56 447.972C5680.32 444.132 5672.16 442.052 5658.08 441.732C5649.44 441.732 5645.12 440.132 5645.12 436.932C5645.12 434.052 5649.12 432.612 5657.12 432.612C5657.44 432.612 5659.36 432.612 5662.88 432.612C5666.4 432.932 5669.6 433.092 5672.48 433.092L5766.08 434.052C5800.64 434.372 5826.4 440.132 5843.36 451.332C5863.2 464.452 5873.12 483.492 5873.12 508.452C5873.12 530.212 5864.96 548.052 5848.64 561.972C5832.32 575.892 5809.44 584.612 5780 588.132L5780 591.012C5809.12 592.932 5831.84 599.012 5848.16 609.252C5872.48 624.612 5884.64 647.812 5884.64 678.852ZM5820.32 513.252C5820.32 482.532 5813.28 462.052 5799.2 451.812C5791.84 446.372 5777.92 443.652 5757.44 443.652C5752 443.652 5743.52 444.132 5732 445.092L5732 584.292L5736.32 584.292L5762.72 583.332C5780.96 582.692 5795.12 576.212 5805.2 563.892C5815.28 551.572 5820.32 534.692 5820.32 513.252ZM5834.24 673.572C5834.24 633.252 5817.92 608.292 5785.28 598.692C5775.68 595.812 5757.92 594.372 5732 594.372L5732 737.412C5732 746.692 5732.96 751.972 5734.88 753.252C5738.08 755.492 5747.04 756.612 5761.76 756.612C5783.84 756.612 5801.44 749.572 5814.56 735.492C5827.68 721.412 5834.24 700.772 5834.24 673.572Z" fill="#000000" fill-rule="evenodd" opacity="1" stroke="none"/>
</g>
</g>
</svg>
